<!--直线一般方程为 A x + B y + C = 0 则以该直线为对称轴，做镜像变换的矩阵为： var a = (Math.pow(B, 2) - Math.pow(A, 2)) / (Math.pow(A, 2) + Math.pow(B, 2)); var b = -2 * A * B / (Math.pow(A, 2) + Math.pow(B, 2)); var c = -2 * A * B / (Math.pow(A, 2) + Math.pow(B, 2)); var d = (Math.pow(A, 2) - Math.pow(B, 2)) / (Math.pow(A, 2) + Math.pow(B, 2)); var e = -2 * A * C / (Math.pow(A, 2) + Math.pow(B, 2)); var f = -2 * B * C / (Math.pow(A, 2) + Math.pow(B, 2));-->
<svg version="1.1" width="300" height="300" viewBox="0 0 300 300" xmlns="http://www.w3.org/2000/svg">
    <g>
        <!--头-->
        <path d="M 133,74 q 60,-2 67,46 q 12,45 -8,65 c -12,8, -60,0 -72,0 c -48,2 -34,-36 -40,-45 c 0,-32 14,-63, 53,-66" fill="#f7f3aa" stroke="#b1a07f" stroke-width="1"/>
        <!--左耳朵-->
        <defs>
            <radialGradient id="rGradient" cx="0" cy="0.5" r="1">
                <stop offset="80%" stop-color="#f7f3aa"/>
                <stop offset="81%" stop-color="#906c48"/>
            </radialGradient>
        </defs>
        <path id="rEarPath" d="M 173,83 q 12,-32 67,-50 q 0,30 -54,79 " fill="url(#rGradient)" stroke="#b1a07f" stroke-width="1"/>
        <!--右耳朵-->
        <defs>
            <radialGradient id="lGradient" cx="1" cy="0.5" r="1">
                <stop offset="80%" stop-color="#f7f3aa"/>
                <stop offset="81%" stop-color="#906c48"/>
            </radialGradient>
        </defs>
        <path id="lEarPath" d="M 96,88 q -58,10 -74,29 q 35,2 63,0" fill="url(#lGradient)" stroke="#b1a07f" stroke-width="1"/>
        <!-- 右手 -->
        <path d="M 115,186 q -5,0 -10,-1 q -18,18 2,33 l 2,-2 2,2 2,-2 2,2 2,1 q 7,-14 4,-21"
             fill="#f7f3aa" stroke="#b1a07f" stroke-width="1" />
        <!-- 左手 -->
        <path d="M 163,190 q -3,2 -5,-1 q -8,-5 -15,-9 a 10,10,0,0,0,-8,4 t 7,23 q 9,6 19,7 q 3,-1 5,-2 q 4,-2 8,-5"
             fill="#f7f3aa" stroke="#b1a07f" stroke-width="1" />
        <!-- 右脚和身体 -->
        <path d="M 98,207 q -14,7 -11,17 t 10,12 t -22,-18 q 1,12 8,20 q 8,6 15,13 q 1,1 3,-6 q 10,5 21,3 q 20,6 41,3 q 7,2 14,1 q 10,1 21,-1 
        q 4,-9 9,-17 q -5,-10 -8,-25 q -3,-12 -7,-25"
             fill="#f7f3aa" stroke="#b1a07f" stroke-width="1" />
        <!-- 左脚 -->
        <path d="M181,213 q -9,4 -19,7 q -3,-1 -6,-3 q 1,15 2,26 q 8,7 15,14 q 1,-5 3,-10 q -6,-8 -14,-27"
              fill="#f7f3aa" stroke="#b1a07f" stroke-width="1" />
        <!-- 尾巴 -->
        <path d="M 207,230 q 4,-2 9,-4 q -4,-9 -9,-19 q 16,-6 32,-11 q -13,-24 -26,-49 q 30,-20 67,-40 q 6,36 13,73 q -23,1 -46,2 q 6,13 11,26
         q -19,5 -38,10 q 3,8 6, 16 q -10,4 -19,8"
             fill="#f7f3aa" stroke="#b1a07f" stroke-width="1" />
        <!-- 右眼 -->
        <path d="M 94,153 q 9,-7 20,-3"
             fill="none" stroke="#906c48" stroke-width="3" />
        <!-- 左眼 -->
        <path d="M 162,152 a 16,16,0,1,1,1,0 h -1,0"
             fill="#906c48" stroke="#906c48" stroke-width="1" />
        <!-- 鼻子 -->
        <circle cx="129" cy="157" r="1" fill="#906c48"/>
        <!-- 嘴巴 -->
        <path d="M 123,164 q 4,2 7,-1 q 6,4 13,0 m -16,6 q 13,7 13,-1"
             fill="none" stroke="#906c48" stroke-width="1" />
        <!-- 右腮红 -->
        <ellipse cx="93" cy="166" rx="8" ry="13" fill="#df8d8e" transform="rotate(-25,92,166)" />
        <!-- 左腮红 -->
        <ellipse cx="180" cy="166" rx="12" ry="14" fill="#df8d8e" transform="rotate(45,180,166)"/>
    </g>
    <!-- 模型 -->
    <g>
        <path d="

        M 133,74 
        L 172,83 195,108 204,158 191,185 125,186 88,173 85,162 80,137 84,117 96,89 z

        M 95,89
        L 21,117 84,116

        M 172,83
        L 239,33 188,110

        M 115,186
        L 105,185 96,202 107,218 118,218 122,199

        M 163,190
        L 158,189 143,180 135,184 142,207 161,214 166,212 174,207 170,194 

        M 98,207
        L 87,224 97,236 75,218 83,238 98,251 101,245 110,251 122,248 163,251 177,252 198,251 207,233 199,208 192,183

        M 181,213
        L 162,220 156,217 158,243 173,257 176,247 162,220

        M 207,230
        L 216,226 207,205 239,194 213,145 280,105 293,178 247,180 258,206 220,216 226,232 207,240

        M 162,152
        A 16,16,0,1,1,163,152 h -1,0

        M 94,153
        L 103,146 114,150

        M 123,164
        L 130,163 143,163

        M 127,166
        L 136,173 140,165

        M 86,160
        L 92,157 103,174 96,178 86,165

        M 180,150
        L 190,160 186,173 176,176 167,160 z

        M 197,205
        L 192,210 200,210

        M 205,218
        L 198,223 207,225

        M 44,160
        L 48,159 52,163 56,156 54,168 
        z" stroke="black" stroke-width="1" fill="none" />
    </g>
</svg>
